<?xml version="1.0" standalone="no"?>
<!DOCTYPE svg PUBLIC "-//W3C//DTD SVG 20010904//EN"
 "http://www.w3.org/TR/2001/REC-SVG-20010904/DTD/svg10.dtd">
<svg version="1.0" xmlns="http://www.w3.org/2000/svg"
 width="300.000000pt" height="300.000000pt" viewBox="0 0 300.000000 300.000000"
 preserveAspectRatio="xMidYMid meet">

<g transform="translate(0.000000,300.000000) scale(0.100000,-0.100000)"
fill="#000000" stroke="none">
<path d="M860 2970 c-49 -49 -17 -85 159 -174 388 -196 581 -194 972 11 122
64 144 80 153 109 7 24 -27 74 -51 74 -8 0 -54 -22 -102 -50 -47 -27 -128 -68
-180 -90 -277 -120 -415 -110 -746 55 -93 47 -173 85 -177 85 -5 0 -17 -9 -28
-20z"/>
<path d="M235 2828 c-51 -19 -82 -47 -105 -93 -62 -128 -88 -465 -71 -910 21
-529 81 -1252 107 -1292 20 -32 68 -31 89 1 14 21 14 38 0 172 -54 533 -78
938 -78 1349 -1 384 11 517 53 611 23 53 41 59 164 51 179 -12 550 -131 911
-291 l60 -27 -295 -147 -295 -147 -23 -47 c-46 -93 -56 -200 -57 -598 0 -372
6 -450 43 -585 20 -74 68 -125 169 -178 152 -79 459 -159 613 -158 138 0 329
60 483 152 99 59 152 115 171 181 62 214 73 808 20 1067 -28 137 -63 181 -219
278 -76 47 -286 163 -296 163 -37 0 19 28 194 98 388 155 639 230 749 223 62
-4 102 -414 102 -1046 1 -649 -36 -1002 -112 -1072 -98 -91 -545 -249 -1070
-378 -96 -23 -115 -31 -124 -51 -15 -31 3 -71 35 -79 13 -4 113 17 237 49 502
128 875 267 997 371 23 19 49 56 62 84 26 61 55 226 73 416 18 190 18 1122 0
1330 -23 267 -53 404 -102 458 -28 32 -29 32 -122 32 -69 -1 -119 -8 -194 -28
-183 -48 -498 -163 -793 -289 l-93 -39 -122 55 c-271 121 -582 235 -791 287
-134 34 -317 48 -370 27z m1511 -617 c176 -92 285 -168 307 -213 39 -81 51
-204 51 -538 1 -327 -15 -504 -49 -571 -44 -84 -295 -204 -482 -230 -70 -10
-91 -8 -208 16 -242 49 -449 131 -497 196 -72 97 -86 946 -18 1124 8 20 53 46
222 130 117 57 264 126 327 153 l114 50 56 -27 c31 -15 110 -55 177 -90z"/>
<path d="M1030 1715 c-6 -8 -9 -22 -6 -32 13 -40 222 -151 340 -180 59 -14 79
-15 139 -5 80 14 205 70 296 132 53 36 62 45 59 68 -4 39 -37 39 -99 -1 -141
-90 -261 -133 -341 -123 -72 10 -169 49 -264 106 -89 54 -105 58 -124 35z"/>
<path d="M1037 1288 c-48 -26 9 -83 158 -157 194 -95 307 -96 494 -1 111 55
171 100 171 126 0 13 -9 28 -19 33 -15 9 -36 0 -107 -43 -49 -29 -120 -65
-159 -81 -123 -49 -248 -26 -420 78 -89 54 -98 57 -118 45z"/>
</g>
</svg>
